<svg id="Icon_feather-shopping-cart" data-name="Icon feather-shopping-cart" xmlns="http://www.w3.org/2000/svg" width="25.98" height="24.935" viewBox="0 0 25.98 24.935">
  <path id="Path_58" data-name="Path 58" d="M14.089,31.045A1.045,1.045,0,1,1,13.045,30,1.045,1.045,0,0,1,14.089,31.045Z" transform="translate(-3.188 -8.654)" fill="none" stroke="#000" stroke-linecap="round" stroke-linejoin="round" stroke-width="3"/>
  <path id="Path_59" data-name="Path 59" d="M30.589,31.045A1.045,1.045,0,1,1,29.545,30,1.045,1.045,0,0,1,30.589,31.045Z" transform="translate(-8.198 -8.654)" fill="none" stroke="#000" stroke-linecap="round" stroke-linejoin="round" stroke-width="3"/>
  <path id="Path_60" data-name="Path 60" d="M1.5,1.5H5.678l2.8,13.986a2.089,2.089,0,0,0,2.089,1.682H20.72a2.089,2.089,0,0,0,2.089-1.682L24.48,6.723H6.723" fill="none" stroke="#000" stroke-linecap="round" stroke-linejoin="round" stroke-width="3"/>
</svg>
