<svg xmlns="http://www.w3.org/2000/svg" width="22" height="20" viewBox="0 0 22 20">
  <path id="Icon_ionic-ios-star" data-name="Icon ionic-ios-star" d="M23.415,10.3H16.192L14,3.885a.8.8,0,0,0-1.493,0l-2.2,6.413H3.036a.78.78,0,0,0-.786.769.554.554,0,0,0,.015.13.736.736,0,0,0,.329.543l5.937,4.1L6.252,22.322a.834.834,0,0,0,.712,1.053.976.976,0,0,0,.491-.173l5.795-4.043L19.045,23.2a.933.933,0,0,0,.491.173.713.713,0,0,0,.437-.187.753.753,0,0,0,.27-.865l-2.279-6.486L23.852,11.7l.142-.12a.8.8,0,0,0,.255-.514A.824.824,0,0,0,23.415,10.3Z" transform="translate(-2.25 -3.375)" fill="#fed641"/>
</svg>
